<svg width="15" height="15" viewBox="0 0 15 15" fill="none" xmlns="http://www.w3.org/2000/svg">
<path fill-rule="evenodd" clip-rule="evenodd" d="M13 6C13 3.79086 11.2091 2 9 2C6.7909 2 5 3.79086 5 6C5 8.2091 6.7909 10 9 10C11.2091 10 13 8.2091 13 6ZM9 0C12.3137 0 15 2.68629 15 6C15 9.3137 12.3137 12 9 12C7.7042 12 6.5043 11.5892 5.5235 10.8907L1.7071 14.7071C1.3166 15.0976 0.6834 15.0976 0.2929 14.7071C-0.0976 14.3166 -0.0976 13.6834 0.2929 13.2929L4.1093 9.4765C3.4108 8.4957 3 7.2958 3 6C3 2.68629 5.6863 0 9 0Z" fill="#2C2C2C"/>
</svg>
